HIERARCHY
ROOT root     
{
	OFFSET 0.0000 0.0000 0.0000
	CHANNELS 6 Xposition Yposition Zposition Zrotation Yrotation Xrotation
	JOINT pelvis   
	{
		OFFSET 0.0000 0.0000 0.0000
		CHANNELS 3 Zrotation Yrotation Xrotation
		JOINT thorax   
		{
			OFFSET 0.0000 23.0750 -5.0000
			CHANNELS 3 Zrotation Yrotation Xrotation
			JOINT rclavicle
			{
				OFFSET 0.0000 28.0009 0.0000
				CHANNELS 3 Zrotation Yrotation Xrotation
				JOINT rhumerus 
				{
					OFFSET -18.5725 5.5939 0.0000
					CHANNELS 3 Zrotation Yrotation Xrotation
					JOINT rradius  
					{
						OFFSET -24.8459 0.0000 0.0000
						CHANNELS 3 Zrotation Yrotation Xrotation
						JOINT rhand    
						{
							OFFSET -24.5477 0.0000 0.0000
							CHANNELS 3 Zrotation Yrotation Xrotation
							End Site
							{
								OFFSET -8.1826 0.0000 0.0000
							}
						}
					}
				}
			}
			JOINT lclavicle
			{
				OFFSET 0.0000 28.0009 0.0000
				CHANNELS 3 Zrotation Yrotation Xrotation
				JOINT lhumerus 
				{
					OFFSET 18.5725 5.5939 0.0000
					CHANNELS 3 Zrotation Yrotation Xrotation
					JOINT lradius  
					{
						OFFSET 24.8459 0.0000 0.0000
						CHANNELS 3 Zrotation Yrotation Xrotation
						JOINT lhand    
						{
							OFFSET 24.5477 0.0000 0.0000
							CHANNELS 3 Zrotation Yrotation Xrotation
							End Site
							{
								OFFSET 8.1826 0.0000 0.0000
							}
						}
					}
				}
			}
			JOINT head     
			{
				OFFSET 0.0000 35.2030 0.0000
				CHANNELS 3 Zrotation Yrotation Xrotation
				End Site
				{
					OFFSET 0.0000 11.7343 0.0000
				}
			}
		}
		JOINT rfemur   
		{
			OFFSET -8.2817 0.0000 0.0000
			CHANNELS 3 Zrotation Yrotation Xrotation
			JOINT rtibia   
			{
				OFFSET 0.0000 -43.3627 0.0000
				CHANNELS 3 Zrotation Yrotation Xrotation
				JOINT rfoot    
				{
					OFFSET 0.0000 -38.2947 0.0000
					CHANNELS 3 Zrotation Yrotation Xrotation
					JOINT rtoes    
					{
						OFFSET 0.0000 0.0000 16.6054
						CHANNELS 3 Zrotation Yrotation Xrotation
						End Site
						{
							OFFSET 0.0000 0.0000 5.5351
						}
					}
				}
			}
		}
		JOINT lfemur   
		{
			OFFSET 8.2817 0.0000 0.0000
			CHANNELS 3 Zrotation Yrotation Xrotation
			JOINT ltibia   
			{
				OFFSET 0.0000 -43.3627 0.0000
				CHANNELS 3 Zrotation Yrotation Xrotation
				JOINT lfoot    
				{
					OFFSET 0.0000 -38.2947 0.0000
					CHANNELS 3 Zrotation Yrotation Xrotation
					JOINT ltoes    
					{
						OFFSET 0.0000 0.0000 16.6054
						CHANNELS 3 Zrotation Yrotation Xrotation
						End Site
						{
							OFFSET 0.0000 0.0000 5.5351
						}
					}
				}
			}
		}
	}
}
MOTION
Frames: 17
Frame Time: .0333333
-1.3442 77.586 3.8441 2.96965 44.3814 18.9549 0 -0 0 -5.91162 -12.2169 22.3844 24.2609 -15.1203 8.27191e-05 53.9095 -22.3878 15.6866 -7.9782e-06 87.7889 -7.67628e-06 -9.22881 2.28364 -0.184298 -14.8063 10.9598 -8.20248e-05 -35.8128 1.56997 -7.43646 180 -77.6883 180 -1.45695 2.35151 -0.0298991 10.771 -10.6146 -7.29852 28.0948 -20.758 -60.7407 -0 -0 45.5 7.40284e-05 -21.3115 -16.9446 -173.514 -8.32691e-06 -6.96121 -0.589953 25.9978 -32.8477 -0 -0 61.6018 -7.6539e-06 13.154 -7.84585 -1.82724 -5.56491e-06 -57.1134 
-0.6466 77.557 4.4345 3.68143 43.8767 19.3291 0 -0 0 -5.83917 -12.2824 22.2741 24.1365 -15.2433 -1.7958e-05 53.9308 -22.6736 15.6037 -0 88.1559 -0 -8.93155 2.39953 -0.1874 -14.9048 11.1579 -5.16128e-05 -35.8117 2.126 -7.02568 180 -77.2512 180 -1.7081 2.24635 -0.0334991 10.5328 -10.7787 -7.58092 28.0523 -20.9245 -60.323 -0 -0 43.8571 3.27777e-05 -21.6152 -16.721 -173.496 1.90566e-06 -8.15334 -0.842202 26.2016 -31.8173 -0 -0 61.3983 3.57288e-05 13.0988 -7.4385 -1.7255 -2.88072e-06 -57.9127 
0.0696 77.501 5.0488 4.42147 43.3752 19.689 0 -0 0 -5.76825 -12.3575 22.1419 24.0048 -15.3591 9.13117e-05 53.9945 -22.9244 15.4969 -7.59655e-06 88.4797 -7.3969e-06 -8.66638 2.50498 -0.189802 -15.0155 11.3485 -8.17246e-05 -35.8723 2.74176 -6.56006 -180 -76.8814 180 -1.97364 2.16317 -0.0373005 10.2449 -10.9634 -7.85499 27.7619 -21.0301 -59.8242 -0 -0 42.5053 8.67914e-05 -21.8707 -16.4883 -173.501 3.17739e-06 -9.81508 -1.08831 26.421 -30.7791 -0 -0 61.277 -1.47791e-05 12.9777 -6.99356 -1.60733 -1.10841e-05 -58.8786 
0.8009 77.421 5.6862 5.17433 42.8743 20.0319 0 -0 0 -5.68285 -12.4429 21.9863 23.8676 -15.4637 -8.85413e-05 54.0937 -23.1414 15.3607 1.5445e-05 88.711 1.5941e-05 -8.42871 2.60322 -0.191902 -15.1411 11.527 8.39256e-05 -35.9939 3.4188 -6.04647 -180 -76.5644 180 -2.25471 2.09949 -0.0413 9.90277 -11.1666 -8.12293 27.2402 -21.0653 -59.2737 -0 -0 41.4994 4.49407e-05 -22.0945 -16.272 -173.511 1.94021e-05 -11.8671 -1.31073 26.6528 -29.7436 -0 -0 61.2477 1.3364e-05 12.7689 -6.50512 -1.47078 9.89842e-06 -60.0534 
1.5556 77.317 6.3426 5.97457 42.3552 20.3614 0 -0 0 -5.62978 -12.5231 21.8362 23.7555 -15.5491 -0.000110456 54.2109 -23.3221 15.1821 -0 88.9924 -0 -8.19923 2.68032 -0.192102 -15.2495 11.7287 1.96608e-05 -36.2129 4.0905 -5.46897 -180 -76.3552 180 -2.55867 2.04334 -0.0456005 9.52381 -11.3874 -8.39543 26.4806 -21.0609 -58.707 -0 -0 40.9158 6.71359e-05 -22.2711 -16.1354 -173.507 9.4302e-06 -14.3591 -1.5294 26.8884 -28.6759 -0 -0 61.2904 4.11887e-06 12.4677 -5.96131 -1.31549 -9.54823e-06 -61.4665 
2.3189 77.194 7.0198 6.75544 41.837 20.6519 0 -0 0 -5.53888 -12.6118 21.6684 23.6414 -15.6144 -9.55767e-05 54.3477 -23.4563 14.9699 9.01075e-06 89.1367 9.14155e-06 -7.98294 2.76016 -0.192601 -15.3812 11.9153 1.46395e-06 -36.4873 4.81487 -4.85943 -180 -76.2071 180 -2.87766 1.99874 -0.0501999 9.09197 -11.6162 -8.66939 25.5615 -21.0052 -58.1547 -0 -0 40.7545 4.66911e-05 -22.4192 -16.0722 -173.484 -9.90484e-06 -16.9479 -1.69178 27.1254 -27.6198 -0 -0 61.4323 5.62967e-06 12.0525 -5.34866 -1.1402 2.28072e-06 -63.1245 
3.0875 77.053 7.7162 7.50672 41.3131 20.8971 0 -0 0 -5.40776 -12.702 21.4943 23.5394 -15.6518 -4.4312e-05 54.4957 -23.5331 14.7157 1.79228e-05 89.3301 1.81362e-05 -7.76556 2.83896 -0.192696 -15.5269 12.1046 3.69443e-05 -36.8352 5.55227 -4.21362 -180 -76.1462 180 -3.21327 1.95769 -0.0549011 8.61735 -11.8486 -8.95166 24.5308 -20.9131 -57.6401 -0 -0 41.0209 -0.000111443 -22.5351 -16.1201 -173.428 -1.67558e-05 -19.5999 -1.78509 27.3541 -26.5726 -0 -0 61.6735 2.37942e-05 11.5189 -4.65004 -0.946602 1.14889e-06 -65.0069 
3.8582 76.899 8.431 8.21805 40.7818 21.0882 0 -0 0 -5.23567 -12.7909 21.3212 23.4527 -15.6563 9.96825e-05 54.6454 -23.5438 14.4208 -0 89.3767 -0 -7.54231 2.91984 -0.192504 -15.6886 12.285 1.82761e-05 -37.2538 6.31179 -3.54652 180 -76.1703 -180 -3.56228 1.91583 -0.0596002 8.1089 -12.0739 -9.2421 23.4416 -20.81 -57.1795 -0 -0 41.6985 -2.09675e-05 -22.6047 -16.2863 -173.34 -1.02055e-05 -22.0355 -1.8011 27.5696 -25.5353 -0 -0 62.0102 1.80747e-06 10.8708 -3.84954 -0.738692 -1.44764e-06 -67.0414 
4.6255 76.737 9.1633 8.87315 40.2405 21.2169 0 -0 0 -5.01621 -12.8748 21.1563 23.3842 -15.6248 5.98304e-05 54.794 -23.4734 14.0871 2.15057e-05 89.4747 2.17123e-05 -7.31014 3.00101 -0.191795 -15.8635 12.4552 8.13371e-05 -37.7464 7.0903 -2.86696 -180 -76.2744 180 -3.92161 1.86969 -0.0640001 7.57619 -12.2874 -9.53913 22.3483 -20.7143 -56.776 -0 -0 42.7354 -3.04253e-05 -22.621 -16.5704 -173.223 3.14898e-05 -24.0521 -1.72802 27.7655 -24.5112 -0 -0 62.4407 9.60645e-06 10.1146 -2.93326 -0.522996 -4.01323e-06 -69.1312 
5.3815 76.568 9.9124 9.44914 39.6889 21.2731 0 -0 0 -4.73736 -12.95 20.9982 23.3359 -15.5526 -2.8985e-05 54.9344 -23.3109 13.7133 -0 89.4584 -0 -7.07083 3.07657 -0.190096 -16.0501 12.6163 8.14244e-05 -38.3169 7.87716 -2.18091 -180 -76.4764 180 -4.28669 1.81771 -0.0680023 7.02821 -12.4783 -9.83866 21.3018 -20.6344 -56.4205 -0 -0 44.0561 0.000153275 -22.5898 -16.9884 -173.069 1.43423e-05 -25.7643 -1.55424 27.939 -23.5135 -0 -0 62.9655 -3.08677e-06 9.26591 -1.89082 -0.308399 5.0512e-07 -71.1701 
6.1212 76.398 10.677 9.93952 39.121 21.2592 0 -0 0 -4.40213 -13.0132 20.8513 23.3091 -15.4373 -9.15842e-05 55.0665 -23.0492 13.3037 1.94366e-05 89.3285 1.96691e-05 -6.83166 3.13966 -0.187397 -16.2447 12.7626 8.8595e-05 -38.9695 8.67626 -1.49941 -180 -76.7694 180 -4.65143 1.76012 -0.0714995 6.47569 -12.6431 -10.1326 20.3408 -20.5844 -56.099 -0 -0 45.5771 0.000152254 -22.5082 -17.5319 -172.885 -5.15708e-05 -27.12 -1.28113 28.0832 -22.5483 -0 -0 63.5765 -4.4459e-07 8.34811 -0.718401 -0.1054 -1.59168e-08 -73.0282 
6.8381 76.23 11.455 10.333 38.5372 21.1752 0 -0 0 -4.00919 -13.0613 20.7101 23.3036 -15.2766 0.000152242 55.1864 -22.6802 12.8656 -1.98809e-05 89.1734 -1.9584e-05 -6.60356 3.18112 -0.183599 -16.4425 12.8939 -3.28457e-06 -39.7072 9.48417 -0.829805 -180 -77.1587 180 -5.00994 1.69874 -0.0742987 5.92814 -12.7764 -10.4125 19.4934 -20.5654 -55.7941 -0 -0 47.2064 -6.77026e-05 -22.3819 -18.1894 -172.675 2.59756e-05 -28.1152 -0.9139 28.1963 -21.6306 -0 -0 64.2647 -5.9742e-07 7.38939 0.578997 0.0750994 5.90261e-07 -74.5799 
7.529 76.067 12.245 10.6353 37.931 21.03 0 -0 0 -3.57189 -13.0905 20.578 23.3203 -15.0764 -9.2698e-05 55.2969 -22.2013 12.4029 -9.54074e-06 88.8963 -9.35593e-06 -6.40208 3.19321 -0.178604 -16.6373 13.0021 2.07243e-05 -40.5298 10.3068 -0.182528 180 -77.6527 180 -5.35393 1.63796 -0.0765968 5.39466 -12.8754 -10.6666 18.7697 -20.583 -55.4866 -0 -0 48.8622 -4.09819e-05 -22.2083 -18.9353 -172.453 9.3525e-05 -28.7219 -0.46965 28.2756 -20.7632 -0 -0 65.0133 -9.63527e-07 6.42341 1.98748 0.223706 -1.06983e-06 -75.7091 
8.1897 75.912 13.042 10.8471 37.2988 20.8347 0 -0 0 -3.09637 -13.0997 20.4467 23.3565 -14.8378 7.0736e-05 55.3983 -21.615 11.9235 1.13735e-05 88.547 1.16658e-05 -6.24167 3.16841 -0.172798 -16.8257 13.088 3.31137e-05 -41.4385 11.1391 0.436956 -180 -78.2493 180 -5.67643 1.58165 -0.0783978 4.88222 -12.9437 -10.8857 18.1739 -20.6286 -55.1603 -0 -0 50.4721 5.11292e-05 -21.9941 -19.7545 -172.226 -6.06304e-05 -29.0006 0.03389 28.3142 -19.9622 -0 -0 65.8105 4.69461e-07 5.48219 3.48219 0.333999 1.19886e-06 -76.3321 
8.8186 75.766 13.845 10.981 36.6386 20.6033 0 -0 0 -2.59805 -13.0864 20.313 23.4095 -14.5714 -0.000127588 55.4953 -20.9268 11.4332 -9.49992e-06 88.1519 -9.19804e-06 -6.13658 3.10365 -0.166406 -17.0003 13.1505 3.93349e-05 -42.4289 11.9803 1.02274 -180 -78.9572 180 -5.96876 1.53474 -0.0800038 4.39652 -12.9853 -11.06 17.6968 -20.6993 -54.8032 -0 -0 51.9772 -0.000175546 -21.7371 -20.6242 -172.006 -3.48954e-05 -28.9983 0.570862 28.309 -19.234 -0 -0 66.6373 2.78922e-06 4.59848 5.03054 0.404096 2.68179e-06 -76.456 
9.4144 75.63 14.65 11.0485 35.9508 20.3522 0 -0 0 -2.08801 -13.0509 20.1704 23.4774 -14.283 3.31292e-05 55.5945 -20.1516 10.9374 3.69149e-06 87.7048 3.84245e-06 -6.09511 2.99727 -0.159595 -17.1561 13.1929 -4.8976e-05 -43.4981 12.8221 1.5727 180 -79.7776 -180 -6.224 1.50138 -0.0815991 3.94089 -13.005 -11.1843 17.3218 -20.7839 -54.4047 -0 -0 53.3369 4.71343e-05 -21.4452 -21.5299 -171.797 2.82766e-05 -28.867 1.11603 28.2529 -18.5908 -0 -0 67.4834 3.97582e-06 3.79407 6.58153 0.435506 7.44845e-07 -75.917 
9.979 75.507 15.454 11.0718 35.236 20.0981 0 -0 0 -1.58689 -12.9941 20.0169 23.5572 -13.9842 8.47083e-05 55.7019 -19.3027 10.4412 -0 87.2286 -0 -6.12272 2.85435 -0.152699 -17.2882 13.2139 2.75949e-05 -44.6342 13.6611 2.08381 -180 -80.7105 180 -6.43485 1.48464 -0.0835014 3.51939 -13.0121 -11.2564 17.0232 -20.8768 -53.9626 -0 -0 54.5318 1.76766e-05 -21.1137 -22.441 -171.615 -4.5455e-05 -28.5844 1.63869 28.1384 -18.0359 -0 -0 68.3329 -5.67296e-06 3.08667 8.08446 0.434499 -2.87854e-06 -74.6998 
